<!DOCTYPE svg PUBLIC "-//W3C//DTD SVG 1.1//EN" "http://www.w3.org/Graphics/SVG/1.1/DTD/svg11.dtd">
<!-- Uploaded to: SVG Repo, www.svgrepo.com, Transformed by: SVG Repo Mixer Tools -->
<svg height="800px" width="800px" version="1.1" id="Layer_1" xmlns="http://www.w3.org/2000/svg" xmlns:xlink="http://www.w3.org/1999/xlink" viewBox="0 0 502 502" xml:space="preserve" fill="#ffffff">
<g id="SVGRepo_bgCarrier" stroke-width="0"/>
<g id="SVGRepo_tracerCarrier" stroke-linecap="round" stroke-linejoin="round"/>
<g id="SVGRepo_iconCarrier"> <g> <g> <path style="fill:#5bbbc8;" d="M50.207,425.46L139.69,26.827C141.899,16.99,150.632,10,160.713,10h83.106 c57.74,0,100.099,9.31,127.082,27.925c26.978,18.62,40.468,47.637,40.468,87.06c0,45.994-14.438,81.587-43.306,106.772 c-28.873,25.191-69.692,37.781-122.453,37.781h-75.86l-37.695,165.426c-2.234,9.804-10.952,16.759-21.007,16.759H71.23 C57.427,451.724,47.184,438.927,50.207,425.46z M183.191,201.444h50.773c31.854,0,55.5-5.87,70.932-17.621 c15.428-11.745,23.146-29.666,23.146-53.759c0-18.317-5.926-31.757-17.77-40.32c-11.849-8.558-30.315-12.843-55.403-12.843 h-43.604L183.191,201.444z"/> <path d="M111.048,461.724H71.23c-9.633,0-18.609-4.313-24.629-11.833c-6.019-7.52-8.261-17.223-6.15-26.622l89.483-398.633 C133.19,10.131,145.847,0,160.713,0h83.106c60.372,0,103.799,9.713,132.761,29.694c29.721,20.513,44.789,52.573,44.789,95.292 c0,48.794-15.723,87.253-46.731,114.308C344.029,266,300.617,279.54,245.611,279.54h-67.882l-35.923,157.647 C138.514,451.634,125.865,461.724,111.048,461.724z M160.713,20c-5.441,0-10.073,3.708-11.266,9.017L59.964,427.65l0,0 c-0.771,3.44,0.049,6.991,2.252,9.743c2.202,2.752,5.488,4.331,9.014,4.331h39.818c5.424,0,10.053-3.693,11.258-8.981 l37.695-165.425c1.037-4.55,5.083-7.778,9.75-7.778h75.859c50.031,0,89.019-11.882,115.879-35.316 c26.835-23.413,39.88-55.874,39.88-99.237c0-36.256-11.824-62.042-36.148-78.831C340.066,28.8,299.22,20,243.82,20H160.713z M233.964,211.444h-50.773c-3.038,0-5.912-1.381-7.81-3.754c-1.898-2.374-2.614-5.48-1.945-8.445l28.075-124.543 c1.028-4.561,5.079-7.801,9.755-7.801h43.604c27.492,0,47.53,4.82,61.259,14.736c14.542,10.515,21.914,26.807,21.914,48.427 c0,27.267-9.113,48.03-27.088,61.716C293.575,205.011,268.392,211.444,233.964,211.444z M195.696,191.444h38.269 c29.473,0,51.3-5.241,64.875-15.577c12.922-9.839,19.203-24.821,19.203-45.803c0-15.048-4.458-25.586-13.629-32.217 c-10.055-7.262-26.725-10.946-49.544-10.946h-35.606L195.696,191.444z"/> </g> <g> <path d="M86.009,427.002c-0.725,0-1.462-0.079-2.199-0.245c-5.389-1.21-8.776-6.559-7.566-11.948l59.406-264.646 c1.21-5.388,6.553-8.776,11.947-7.567c5.389,1.21,8.776,6.559,7.566,11.948L95.757,419.19 C94.713,423.842,90.585,427.002,86.009,427.002z M153.947,124.356c-0.727,0-1.462-0.079-2.2-0.245 c-5.389-1.21-8.776-6.559-7.566-11.948l8.834-39.354c1.209-5.388,6.556-8.775,11.947-7.567c5.389,1.21,8.776,6.559,7.566,11.948 l-8.834,39.354C162.65,121.195,158.522,124.356,153.947,124.356z"/> </g> <g> <path d="M147.903,502h-39.818c-5.522,0-10-4.477-10-10s4.478-10,10-10h39.818c5.355,0,9.973-4.109,11.228-9.992l35.214-163.71 c0.991-4.607,5.063-7.897,9.776-7.897h75.859c45.369,0,88.941-16.361,119.546-44.889c4.038-3.766,10.367-3.545,14.133,0.497 c3.767,4.04,3.544,10.367-0.496,14.133c-34.265,31.94-82.809,50.259-133.183,50.259h-67.781l-33.512,155.796 C175.447,491.382,162.787,502,147.903,502z M443.939,211.951c-1.018,0-2.053-0.157-3.074-0.486 c-5.256-1.697-8.141-7.333-6.444-12.589c5.246-16.249,7.905-34.872,7.905-55.353c0-5.523,4.478-10,10-10s10,4.477,10,10 c0,22.569-2.985,43.26-8.872,61.497C452.086,209.254,448.161,211.951,443.939,211.951z"/> </g> </g> </g>
</svg>